<svg width="284" height="38" viewBox="0 0 284 38" fill="none" xmlns="http://www.w3.org/2000/svg">
<path d="M1.19209e-07 1.3V4.95H2.9V1.3H1.19209e-07ZM1.19209e-07 10V37H2.9V10H1.19209e-07ZM31.3219 17.05C30.6219 14.55 28.3219 11.85 25.7719 10.55C24.0219 9.65 21.9719 9.25 20.1219 9.25C18.2219 9.2 16.2719 9.45 14.3719 10.3C11.9719 11.4 10.0719 13.75 10.0719 16.35C10.0719 18.1 10.7219 19.95 12.3219 21.25C13.9719 22.55 15.7219 23 17.6219 23.55C19.6219 24.1 21.1719 24.55 22.4719 24.95C24.9219 25.65 25.9219 26.1 26.8219 26.9C27.9219 27.8 28.4219 29 28.2719 30.3C28.1719 31.55 27.5219 32.7 26.3719 33.5C24.9719 34.45 22.5219 34.9 20.3719 34.9C17.9219 34.9 15.3719 34.2 13.6719 32.35C12.5219 31 11.8219 29.15 11.5219 27.35L8.67188 28.1C9.12188 30.1 9.87188 32.4 11.5219 34.25C13.7219 36.65 16.9719 37.7 20.4719 37.7C23.1219 37.7 25.9219 37.25 28.0219 35.9C29.8219 34.75 31.1219 32.7 31.3219 30.55C31.5219 28.3 30.6719 26.35 28.6719 24.75C27.0719 23.45 25.2719 22.75 23.4219 22.25C21.0219 21.6 19.2219 21.15 17.9219 20.75C15.8719 20.15 15.0219 19.7 14.2219 19C13.3719 18.25 13.1219 17.35 13.1219 16.35C13.1219 14.9 14.1719 13.6 15.5719 12.9C16.8719 12.3 18.4719 12 20.0219 12.05C21.6219 12.05 23.1719 12.4 24.4719 13.1C26.3219 14.05 27.7219 15.8 28.4219 17.75L31.3219 17.05ZM283.388 9.75C283.388 7.25 282.638 5.05 281.038 3.3C279.088 1.15 276.138 0.249997 272.988 0.249997C270.238 0.249997 267.388 1.1 265.388 3C263.588 4.7 262.738 7.25 262.688 9.7H265.638C265.638 7.95 266.138 6.25 267.338 5.1C268.588 3.75 270.638 3.05 272.938 3.05C275.188 3.05 277.388 3.6 278.888 5.35C279.838 6.4 280.288 7.85 280.288 9.75C280.288 11.45 279.938 13 278.688 14.45C276.688 16.65 273.538 17.75 271.988 20.7C270.938 22.75 270.938 24.45 270.938 27.15H273.988C273.988 24.9 273.838 23.5 274.688 21.9C275.888 19.7 278.988 18.3 280.738 16.4C282.438 14.65 283.388 12.25 283.388 9.75ZM270.938 37H273.988V32.65H270.938V37Z" fill="#A7D7C5"/>
<path d="M60.475 19.7C59.675 19 58.775 18.45 57.775 18.05C58.225 17.75 58.675 17.45 59.075 17.05C60.525 15.75 61.575 13.5 61.525 11.05C61.475 8.2 60.575 5.65 58.475 3.7C56.375 1.7 53.975 0.999997 50.875 0.999997H36.625V37H51.575C55.925 37 58.075 36.3 60.225 34.2C62.325 32.2 63.175 29.3 63.175 26.25C63.225 23.8 62.175 21.25 60.475 19.7ZM50.825 6.65C52.175 6.65 53.325 7 54.175 7.85C55.025 8.7 55.375 9.85 55.375 10.95C55.375 12 55.175 13.05 54.475 13.85C53.625 14.8 52.425 15.35 50.825 15.35H42.725V6.65H50.825ZM55.625 29.8C54.525 30.85 53.325 31.3 51.625 31.3H42.725V21H51.775C53.025 21 54.675 21.35 55.825 22.6C56.725 23.6 57.075 24.95 57.075 26.25C57.075 27.65 56.625 28.85 55.625 29.8ZM80.5438 37.75C84.5438 37.75 88.2438 36.25 90.7438 33.25C93.0438 30.4 93.9938 27.25 93.9938 23.5C93.9938 19.9 93.0938 16.55 90.7438 13.7C88.2938 10.75 84.4938 9.25 80.5438 9.25C76.5938 9.25 72.7438 10.8 70.3438 13.7C68.1438 16.35 67.0938 19.75 67.0938 23.5C67.0938 27.15 68.0438 30.45 70.3438 33.25C72.7938 36.2 76.5438 37.75 80.5438 37.75ZM87.6438 23.5C87.6438 25.7 87.1938 27.95 85.9438 29.6C84.7438 31.25 82.6938 32.1 80.5438 32.1C78.3438 32.1 76.3438 31.25 75.1438 29.6C73.8438 27.95 73.4938 25.7 73.4938 23.5C73.4938 21.25 73.8438 19 75.1438 17.35C76.3438 15.7 78.3438 14.9 80.5438 14.9C82.6938 14.9 84.7438 15.7 85.9438 17.35C87.1938 19 87.6438 21.25 87.6438 23.5ZM112.684 9.3C110.884 9.35 109.084 9.85 107.534 10.9C106.384 11.65 105.484 12.65 104.834 13.75V10H99.4844V37H105.534V23C105.534 20.5 105.984 18.4 107.534 16.8C108.534 15.75 110.084 15.05 112.084 14.9C113.884 14.8 115.634 15.05 116.934 15.6V10C115.534 9.45 114.084 9.2 112.684 9.3ZM125.719 25.2H145.219C145.569 20.65 144.869 16.6 142.269 13.5C139.819 10.55 136.619 9.25 132.669 9.25C128.669 9.25 124.919 10.75 122.469 13.7C120.269 16.35 119.219 19.95 119.219 23.8C119.219 27.2 120.269 30.55 122.469 33.25C124.869 36.2 128.969 37.75 132.969 37.75C135.469 37.75 138.119 37 140.169 35.7C142.269 34.35 143.969 32.3 144.919 30.05L138.969 28.25C138.569 29.15 137.919 30 136.819 30.85C135.719 31.7 134.319 32.1 132.669 32.1C130.469 32.1 128.469 31.25 127.219 29.6C126.269 28.4 125.869 26.8 125.719 25.2ZM132.669 14.5C134.719 14.5 136.719 15.25 137.919 16.75C138.719 17.85 139.069 19.05 139.169 20.45H125.819C126.019 19.15 126.469 18 127.269 16.95C128.719 15.15 130.669 14.5 132.669 14.5ZM169.213 0.999997V11.5C167.163 10.1 164.663 9.25 161.963 9.25C158.263 9.25 154.713 10.7 152.413 13.55C150.312 16.25 149.313 19.8 149.313 23.5C149.313 27.15 150.163 30.6 152.413 33.45C154.663 36.2 158.163 37.75 161.763 37.75C164.913 37.75 167.813 36.85 169.963 34.9V37H175.263V0.999997H169.213ZM167.963 30.15C166.663 31.65 164.813 32.35 162.663 32.35C160.563 32.35 158.463 31.6 157.213 29.75C156.113 28.2 155.713 25.9 155.713 23.5C155.713 21.05 156.213 18.8 157.313 17.25C158.563 15.4 160.513 14.65 162.863 14.65C164.913 14.65 166.763 15.35 167.963 16.8C169.313 18.45 169.913 20.95 169.913 23.5C169.913 26.05 169.313 28.6 167.963 30.15ZM182.766 0.999997V37H188.766V0.999997H182.766ZM225.281 0.999997H219.181V23.1C219.181 25.35 218.781 27.1 217.481 28.85C215.881 30.9 213.381 32.1 210.831 32.1C208.231 32.1 205.581 30.95 204.131 28.85C202.831 27.1 202.381 25.3 202.381 23.1V0.999997L196.281 1.05V23.65C196.281 26.8 197.381 30.25 199.331 32.75C202.031 36.1 206.431 37.75 210.831 37.75C215.231 37.75 219.581 36.15 222.231 32.75C224.281 30.2 225.281 26.9 225.281 23.65V0.999997ZM257.931 10.1C256.581 6.55 254.281 3.7 251.231 2.05C248.931 0.749998 246.181 0.299999 243.731 0.249997C241.331 0.249997 238.781 0.449997 236.281 1.65C233.081 3.15 230.581 6.5 230.581 10.25C230.581 12.7 231.531 15.35 233.581 17.1C235.381 18.7 237.781 19.7 240.431 20.45L247.081 22.4C248.631 22.8 249.781 23.4 250.681 24.2C251.481 24.95 251.881 25.95 251.881 27.05C251.881 28.25 251.481 29.55 250.231 30.5C248.831 31.55 246.331 32.1 244.281 32.1C241.681 32.1 238.781 31.1 237.231 29.05C236.231 27.8 235.631 26.25 235.281 24.5L229.181 26.15C229.731 28.4 230.681 30.9 232.431 32.95C235.381 36.45 239.331 37.75 244.081 37.75C247.781 37.75 251.081 37.25 253.781 35.45C256.531 33.55 258.281 30.35 258.281 27.25C258.281 24.4 257.081 21.8 255.031 19.85C253.431 18.3 251.481 17.3 248.431 16.4L242.131 14.6C240.281 14.05 238.581 13.35 237.781 12.55C237.231 12 236.931 11.2 236.931 10.4C236.931 9.1 237.681 7.8 239.081 6.95C240.231 6.3 241.881 5.9 243.631 5.95C245.381 5.95 246.981 6.55 248.231 7.3C250.031 8.35 250.931 9.8 251.881 11.75L257.931 10.1Z" fill="#5C8D89"/>
</svg>
